Tinkerbell.Secret.Of.The.Wings.2012.BDRip.XVID.AC3.HQ.Hive-CM8 Thx Hive
CM8 Doing It Right The First Time 

Source: Bluray
Video: 720x400 @bitrate 1700 2pass
Audio: English DTS to AC3 5.1 @448
Subs: Yes, English in srt /subs
Sample: Yes, included 
http://www.imdb.com/title/tt1217213/

General
Complete name: Tinkerbell.Secret.Of.The.Wings.2012.BDRip.XVID.AC3.HQ.Hive-CM8.avi
Format: AVI
Format/Info: Audio Video Interleave
File size: 1.29 GiB
Duration: 1h 15mn
Overall bit rate: 2 468 Kbps
Writing application: Nandub v1.0rc2
Writing library: Nandub build 1853/release

Video
ID: 0
Format: MPEG-4 Visual
Format profile: Advanced Simple@L5
Format settings, BVOP: 1
Format settings, QPel: Yes
Format settings, GMC: No warppoints
Format settings, Matrix: Default (H.263)
Muxing mode: Packed bitstream
Codec ID: XVID
Codec ID/Hint: XviD
Duration: 1h 15mn
Bit rate: 2 011 Kbps
Width: 720 pixels
Height: 400 pixels
Display aspect ratio: 16:9
Frame rate: 23.976 fps
Color space: YUV
Chroma subsampling: 4:2:0
Bit depth: 8 bits
Scan type: Progressive
Compression mode: Lossy
Bits/(Pixel*Frame): 0.291
Stream size: 1.05 GiB (81%)
Writing library: XviD 1.2.1 (UTC 2008-12-04)

Audio
ID: 1
Format: AC-3
Format/Info: Audio Coding 3
Mode extension: CM (complete main)
Format settings, Endianness: Big
Codec ID: 2000
Duration: 1h 15mn
Bit rate mode: Constant
Bit rate: 448 Kbps
Channel(s): 6 channels
Channel positions: Front: L C R, Side: L R, LFE
Sampling rate: 48.0 KHz
Bit depth: 16 bits
Compression mode: Lossy
Stream size: 241 MiB (18%)
Alignment: Split accross interleaves
Interleave, duration: 42 ms (1.00 video frame)
Interleave, preload duration: 500 ms

Plot:
Tinker Bell meets Periwinkle and ventures into the winter woods with
her and Tinker Bell's other friends to find the secret of fairy wings

Cast:
Timothy Dalton ... Lord Milori (voice)
Lucy Hale ... Periwinkle (voice)
Megan Hilty ... Rosetta (voice)
Anjelica Huston ... Queen Clarion (voice)
 
http://img23.imageshack.us/img23/5066/ttitii.png 
http://img837.imageshack.us/img837/9421/ttitiiti.png 
http://img248.imageshack.us/img248/9410/tttitiiti.png 
http://img853.imageshack.us/img853/7633/86604055.png 
http://img88.imageshack.us/img88/7256/ttii.png